<mxfile host="app.diagrams.net" modified="2024-01-14T22:45:14.134Z" agent="Mozilla/5.0 (X11; Linux x86_64; rv:121.0) Gecko/20100101 Firefox/121.0" version="22.1.17" etag="MJtOmsibliHkHlN-8ue9" type="github">
  <diagram name="Page-1" id="Mb1ICseYXV3iDke9C1j1">
    <mxGraphModel>
      <root>
        <mxCell id="0" />
        <mxCell id="1" parent="0" />
      </root>
    </mxGraphModel>
  </diagram>
</mxfile>
